PathFileType	4	(X/Y/Z)	T1_P2_Vision_NoMovement_1_0-732.trc
DataRate	CameraRate	NumFrames	NumMarkers	Units	OrigDataRate	OrigDataStartFrame	OrigNumFrames
60	60	4	27	m	60	640	732
Frame#	Time	RHip			RKnee			RAnkle			RBigToe			RSmallToe			RHeel			LHip			LKnee			LAnkle			LBigToe			LSmallToe			LHeel			Neck			Head			Nose			RShoulder			RElbow			RWrist			RThumb			RIndex			RPinky			LShoulder			LElbow			LWrist			LThumb			LIndex			LPinky		
		X1	Y1	Z1	X2	Y2	Z2	X3	Y3	Z3	X4	Y4	Z4	X5	Y5	Z5	X6	Y6	Z6	X7	Y7	Z7	X8	Y8	Z8	X9	Y9	Z9	X10	Y10	Z10	X11	Y11	Z11	X12	Y12	Z12	X13	Y13	Z13	X14	Y14	Z14	X15	Y15	Z15	X16	Y16	Z16	X17	Y17	Z17	X18	Y18	Z18	X19	Y19	Z19	X20	Y20	Z20	X21	Y21	Z21	X22	Y22	Z22	X23	Y23	Z23	X24	Y24	Z24	X25	Y25	Z25	X26	Y26	Z26	X27	Y27	Z27
641	10.683333333333334	455.12099544255096	3719.8167183136643	664.8775536296282	834.7012002731574	3718.702794913941	646.5463820764962	1205.3762626215673	3728.1710484781233	661.77283396212	1296.2317743973135	3654.996560227022	658.2400368615577	1294.4968125102885	3710.963351612365	611.4051091167323	1276.6534270894394	3810.2180467448884	739.3567959258736	461.2545299738599	3642.9006792113014	870.5047569186725	856.1810722605521	3645.276522423723	867.0927646170385	1235.4279627281278	3681.7983748670918	860.8614123033734	1298.6872076023715	3535.623248758485	798.2058879806744	1282.7749487592528	3537.1986508766818	844.1267770660696	1260.1932483315666	3701.26246876857	854.2460788461212	-126.55618250024312	3650.5885032277038	759.8645425269966	-387.3941122308106	3616.9292714659214	720.5176451179715	-249.8193017986606	3553.321534236461	717.3627945131684	-39.66929608840672	3749.479588281578	637.8769690603875	199.72719282632235	3729.1247440826537	555.0839462730042	341.3317924695342	3560.6038862832334	632.8884583020579	413.13947942144534	3548.2386594174686	721.6560807878775	433.1568008040743	3547.3119740465218	740.2988264520086	455.0554753914138	3535.3433676379423	722.4500297078314	-43.142592974272425	3602.990734662768	928.8962169443598	205.35375559276824	3528.2819552185156	933.3293430743772	339.639108840833	3487.71144141248	736.1763495833651	386.24152305708645	3494.8191874661175	636.5108018162008	417.0703212601675	3526.9214947352602	645.8420556521369	441.1741125061854	3504.8076964143497	704.8567294370729
642	10.7	452.62912991856695	3714.2059878355203	662.9397126507312	834.0999868901295	3718.1607933936716	646.8308146785176	1202.5473768232432	3723.21139558173	659.4027502881411	1298.4087716834897	3658.098451051684	660.9420666951131	1294.4625338894143	3712.0501432017722	611.8522954273122	1275.0582220965703	3807.209055063618	738.887599391397	459.9702436320671	3644.46029817839	871.406904988015	855.5731059048593	3646.21193337158	867.5775482667239	1231.8991334989937	3677.817847994834	857.6717415097064	1299.7671550079615	3537.774629666372	797.9319115173387	1282.5716857023845	3537.059423907907	844.0381562505105	1258.456067825909	3701.520044346922	854.5710495309802	-126.53558513507474	3650.619932504913	759.8779107774928	-386.8265013709313	3618.9864864341516	722.5228095933885	-250.42139236408772	3554.3440759791074	717.9355289672352	-39.703373868812946	3749.4956306915524	637.9101321290724	199.63308536997107	3720.9615956402827	553.0898193295902	341.308147259001	3560.5743017563245	632.8759854537445	412.11512628880365	3541.609419767867	719.6339284507455	433.353318926617	3547.080014167736	740.1270525727009	455.0366404938967	3535.3999048116584	722.415607186586	-43.16790285351815	3603.0757977482376	928.9728328287126	205.38998526923828	3528.2268911755937	933.3011990006494	339.6194315112148	3487.74688764634	736.1389633163358	385.6407408131903	3494.0107086054268	636.826640873539	417.49919719679906	3528.718217973441	647.4250494867624	441.12627583265294	3504.8530379386766	704.931369135728
643	10.716666666666669	450.9280671757348	3709.817231893199	661.7963252859637	834.3813036194147	3717.9798814527676	647.6291356654297	1200.6818206251921	3719.624171190602	658.3067009541653	1298.3038710030498	3657.302324366351	660.2556368528745	1293.9719664022866	3712.8930005089264	612.3623762652485	1275.6760210063899	3807.5738238709782	740.92469891669	458.97112662129166	3645.6118620761554	872.1039724060633	855.0500617315362	3646.996523826254	868.0804150450658	1229.3171839237607	3674.988479460288	855.1920405628612	1303.2411128959568	3545.2386121529053	800.1083768072538	1282.5492328595303	3537.058884910845	844.0444277282508	1256.745836470534	3702.8993215973364	855.5040859698263	-126.53676347119391	3650.6780562003496	759.9043044890267	-387.6305955026386	3621.022981751683	724.1203781090389	-252.22027667505216	3555.435971062228	718.6032334383328	-40.157874092355826	3749.9413027316455	638.1794828020393	199.26687022405255	3715.576842836716	550.5495976375396	341.27487706505485	3560.538912854525	632.8689600878112	411.7066317631538	3539.349554137187	718.965578538272	433.8925777065261	3546.3932968721297	739.733663227744	455.696095620822	3534.6911963319158	721.9347428442243	-43.207145134001195	3603.161137750698	929.036222287538	205.4053905614325	3528.226931304105	933.2852768670539	339.58920293666216	3487.7598106281316	736.1126197638573	384.7337275559632	3492.553964653577	637.8434562949286	418.3848196508892	3533.043263100545	650.903417068642	441.11205200996926	3504.976940452829	705.042577928697
644	10.733333333333333	450.6921990701186	3707.9651872900504	661.9280440355299	834.7134444739988	3717.8857629387567	648.1780577854241	1200.6839479526714	3719.6167763455605	659.2105171254905	1296.9662261060516	3654.5367798153034	657.7426192986608	1293.5960509277515	3713.4308049553033	612.697913391191	1276.5965264273523	3808.7426286904665	742.691647738029	458.4958871701057	3645.9978297370567	872.3812582525268	854.4880900975605	3647.783752209279	868.5989997628883	1227.7931088552882	3673.0919326122507	853.2677864876224	1306.0999905361982	3551.816191542139	802.3706889676744	1282.7151636143108	3537.176009681732	844.1212691821333	1255.9339820323712	3704.4192935678548	856.4171899802574	-126.55731768673357	3650.7526723035053	759.9427456296065	-389.1175157413259	3620.9861256465783	723.6500597187575	-254.1599504935277	3556.1365727100565	719.0806929805287	-40.80862896153181	3750.620061785207	638.571074369605	199.05629109773747	3713.8406031610057	548.48050442879	341.2390447544195	3560.5094149208	632.866531115195	412.2030348222383	3543.524976419682	719.8635439925947	434.4741469904736	3545.652923308948	739.3163742206481	456.4449073889359	3534.0011191231993	721.5622130296924	-43.24255306578938	3603.197489758024	929.0540640388676	205.4151770152176	3528.26396215893	933.2691330138222	339.5571487864321	3487.745249506733	736.0773719411322	384.20531001227823	3491.225873668121	639.3692096535073	419.5002384283972	3539.3224860139485	655.119207751599	441.11951777139404	3505.1523671245645	705.1205120000391
